<?xml version="1.0" encoding="UTF-8"?>
<svg width="50px" height="50px" viewBox="0 0 50 50" version="1.1" xmlns="http://www.w3.org/2000/svg" xmlns:xlink="http://www.w3.org/1999/xlink">
    <!-- Generator: Sketch 52.5 (67469) - http://www.bohemiancoding.com/sketch -->
    <title>whatsapp-square</title>
    <desc>Created with Sketch.</desc>
    <g id="Page-1" stroke="none" stroke-width="1" fill="none" fill-rule="evenodd">
        <g id="Blog" transform="translate(-1380.000000, -826.000000)" fill="#0573AA" fill-rule="nonzero">
            <g id="whatsapp-square" transform="translate(1380.000000, 826.000000)">
                <path d="M25,10.1339286 C16.8861607,10.1339286 10.2901786,16.7299107 10.2790179,24.84375 C10.2790179,27.6227679 11.0602679,30.3348214 12.5334821,32.6674107 L12.8794643,33.2254464 L11.3950893,38.6495536 L16.9642857,37.1875 L17.5,37.5111607 C19.7544643,38.8504464 22.34375,39.5647321 24.9888393,39.5647321 L25,39.5647321 C33.1026786,39.5647321 39.8772321,32.96875 39.8772321,24.8549107 C39.8772321,20.9263393 38.1808036,17.2321429 35.4017857,14.453125 C32.6116071,11.6629464 28.9285714,10.1339286 25,10.1339286 Z M33.6495536,31.1607143 C33.28125,32.1986607 31.5178571,33.1361607 30.6696429,33.2589286 C29.2633929,33.4709821 28.1696429,33.359375 25.3683036,32.1540179 C20.9375,30.234375 18.0357143,25.7700893 17.8125,25.4799107 C17.5892857,25.1897321 16.0044643,23.0803571 16.0044643,20.9040179 C16.0044643,18.7276786 17.1428571,17.65625 17.5558036,17.2098214 C17.9575893,16.7633929 18.4375,16.6517857 18.7388393,16.6517857 C19.0290179,16.6517857 19.3303571,16.6517857 19.5870536,16.6629464 C19.8549107,16.6741071 20.2232143,16.5625 20.5803571,17.421875 C20.9486607,18.3035714 21.8303571,20.4799107 21.9419643,20.703125 C22.0535714,20.9263393 22.1316964,21.1830357 21.9754464,21.4732143 C21.1272321,23.1696429 20.2232143,23.1026786 20.6808036,23.8839286 C22.3883929,26.8191964 24.0959821,27.8348214 26.6964286,29.140625 C27.1428571,29.3638393 27.3995536,29.3303571 27.65625,29.0290179 C27.9129464,28.7388393 28.7611607,27.734375 29.0513393,27.2991071 C29.3415179,26.8526786 29.6428571,26.9308036 30.0446429,27.0758929 C30.4464286,27.2209821 32.6227679,28.2924107 33.0691964,28.515625 C33.515625,28.7388393 33.8058036,28.8504464 33.9174107,29.0290179 C34.0178571,29.2410714 34.0178571,30.1339286 33.6495536,31.1607143 Z M44.6428571,0 L5.35714286,0 C2.39955357,0 0,2.39955357 0,5.35714286 L0,44.6428571 C0,47.6004464 2.39955357,50 5.35714286,50 L44.6428571,50 C47.6004464,50 50,47.6004464 50,44.6428571 L50,5.35714286 C50,2.39955357 47.6004464,0 44.6428571,0 Z M24.9888393,42.5446429 C22.0200893,42.5446429 19.1071429,41.796875 16.5290179,40.390625 L7.14285714,42.8571429 L9.65401786,33.6830357 C8.10267857,31.0044643 7.28794643,27.9575893 7.28794643,24.8325893 C7.29910714,15.078125 15.234375,7.14285714 24.9888393,7.14285714 C29.7209821,7.14285714 34.1629464,8.984375 37.5111607,12.3325893 C40.8482143,15.6808036 42.8571429,20.1227679 42.8571429,24.8549107 C42.8571429,34.609375 34.7433036,42.5446429 24.9888393,42.5446429 Z" id="Shape"></path>
            </g>
        </g>
    </g>
</svg>